<?xml version="1.0" encoding="utf-8"?>
<!-- Generator: Adobe Illustrator 27.5.0, SVG Export Plug-In . SVG Version: 6.00 Build 0)  -->
<svg version="1.1" xmlns="http://www.w3.org/2000/svg" xmlns:xlink="http://www.w3.org/1999/xlink" x="0px" y="0px"
	 viewBox="0 0 393 248.3" style="enable-background:new 0 0 393 248.3;" xml:space="preserve">
<style type="text/css">
	.st0{clip-path:url(#SVGID_00000128443090445558461890000018417564106868539059_);}
	.st1{opacity:0.7;fill:url(#SVGID_00000102508911333369730920000007926917160321909387_);}
	.st2{fill:none;stroke:#FFFFFF;stroke-width:1.159;stroke-miterlimit:10;}
	.st3{clip-path:url(#SVGID_00000086678883060960925480000005220394716254640573_);}
	.st4{opacity:0.7;fill:url(#SVGID_00000073720379514888862470000011363410390695204519_);}
	.st5{fill:#FFFFFF;}
	.st6{fill:#BD8F35;}
	.st7{fill:none;stroke:#FFFFFF;stroke-miterlimit:10;}
	.st8{clip-path:url(#SVGID_00000034060379505099558680000008210805955755014787_);}
	.st9{fill:#0D576D;}
	.st10{clip-path:url(#SVGID_00000183239921357130260880000001387029754234963379_);}
	.st11{display:none;}
	.st12{display:inline;fill:none;stroke:#FFED00;stroke-width:2;stroke-miterlimit:10;}
</style>
<g id="Layer_1">
	<g>
		<g>
			<path class="st5" d="M162,66.4c0-32.7,17.7-59.1,39.5-59.1c13.6,0,25.5,10.2,32.7,25.9l10.1-10c-11-10.8-26.1-17.5-42.7-17.5
				c-33.6,0-60.9,27.2-60.9,60.8c0,16.6,6.7,31.7,17.5,42.6l10.3-10.3C164.4,89.5,162,78.4,162,66.4z"/>
			<path class="st5" d="M191.3,137.6c33.7,0,61.1-27.3,61.1-61c0-17-7-32.4-18.2-43.5l-10.1,10.1c4.3,9.5,6.9,21,6.9,33.4
				c0,32.8-17.7,59.3-39.6,59.3c-13.9,0-26.1-10.7-33.2-26.9l-10.4,10.3C158.9,130.6,174.3,137.6,191.3,137.6z"/>
		</g>
		<g>
			<path class="st5" d="M86.7,239.5v3h-1.6v-3l-3.3-5.5h1.7l2.5,4.1l2.5-4.1h1.5L86.7,239.5z"/>
			<path class="st5" d="M93.6,238.3c0-2.5,1.9-4.3,4.6-4.3s4.6,1.8,4.6,4.3c0,2.5-1.9,4.3-4.6,4.3S93.6,240.8,93.6,238.3z
				 M101.2,238.3c0-1.7-1.3-3-3-3s-3,1.2-3,3c0,1.7,1.3,3,3,3S101.2,240,101.2,238.3z"/>
			<path class="st5" d="M108,238.8V234h1.6v4.7c0,1.7,0.8,2.5,2.2,2.5c1.4,0,2.1-0.7,2.1-2.5V234h1.5v4.8c0,2.5-1.4,3.8-3.7,3.8
				C109.4,242.6,108,241.3,108,238.8z"/>
			<path class="st5" d="M126.7,242.5L125,240c-0.1,0-0.2,0-0.3,0h-1.9v2.5h-1.6V234h3.5c2.2,0,3.6,1.1,3.6,3c0,1.3-0.7,2.2-1.8,2.7
				l1.9,2.8H126.7z M124.6,235.4h-1.8v3.4h1.8c1.4,0,2.1-0.6,2.1-1.7S126,235.4,124.6,235.4z"/>
			<path class="st5" d="M139.4,241.6l0.5-1.2c0.7,0.5,1.8,0.9,2.8,0.9c1.3,0,1.9-0.5,1.9-1.1c0-1.8-5-0.6-5-3.8
				c0-1.4,1.1-2.5,3.4-2.5c1,0,2.1,0.3,2.8,0.7l-0.5,1.2c-0.8-0.4-1.6-0.7-2.3-0.7c-1.3,0-1.8,0.5-1.8,1.1c0,1.8,5,0.6,5,3.7
				c0,1.4-1.1,2.5-3.4,2.5C141.4,242.6,140.1,242.2,139.4,241.6z"/>
			<path class="st5" d="M158.9,234v8.5h-1.6v-3.6H153v3.6h-1.6V234h1.6v3.5h4.4V234H158.9z"/>
			<path class="st5" d="M164.8,234h1.6v8.5h-1.6V234z"/>
			<path class="st5" d="M173.8,235.4v2.6h4.1v1.3h-4.1v3.2h-1.6V234h6.2v1.3H173.8z"/>
			<path class="st5" d="M185.6,235.4h-2.8V234h7.2v1.3h-2.8v7.1h-1.6V235.4z"/>
			<path class="st5" d="M203,235.4h-2.8V234h7.2v1.3h-2.8v7.1H203V235.4z"/>
			<path class="st5" d="M211.3,238.3c0-2.5,1.9-4.3,4.6-4.3s4.6,1.8,4.6,4.3c0,2.5-1.9,4.3-4.6,4.3S211.3,240.8,211.3,238.3z
				 M218.9,238.3c0-1.7-1.3-3-3-3c-1.7,0-3,1.2-3,3c0,1.7,1.3,3,3,3C217.6,241.2,218.9,240,218.9,238.3z"/>
			<path class="st5" d="M231.6,241.6l0.5-1.2c0.7,0.5,1.8,0.9,2.8,0.9c1.3,0,1.9-0.5,1.9-1.1c0-1.8-5-0.6-5-3.8
				c0-1.4,1.1-2.5,3.4-2.5c1,0,2.1,0.3,2.8,0.7l-0.5,1.2c-0.8-0.4-1.6-0.7-2.3-0.7c-1.3,0-1.8,0.5-1.8,1.1c0,1.8,5,0.6,5,3.7
				c0,1.4-1.1,2.5-3.4,2.5C233.6,242.6,232.3,242.2,231.6,241.6z"/>
			<path class="st5" d="M243.4,238.8V234h1.6v4.7c0,1.7,0.8,2.5,2.2,2.5s2.1-0.7,2.1-2.5V234h1.5v4.8c0,2.5-1.4,3.8-3.7,3.8
				C244.8,242.6,243.4,241.3,243.4,238.8z"/>
			<path class="st5" d="M256,238.3c0-2.5,1.9-4.3,4.5-4.3c1.4,0,2.6,0.5,3.4,1.4l-1,1c-0.6-0.7-1.4-1-2.3-1c-1.8,0-3,1.2-3,3
				c0,1.7,1.3,3,3,3c0.9,0,1.6-0.3,2.3-1l1,1c-0.8,0.9-2,1.4-3.4,1.4C257.9,242.6,256,240.8,256,238.3z"/>
			<path class="st5" d="M268.2,238.3c0-2.5,1.9-4.3,4.5-4.3c1.4,0,2.6,0.5,3.4,1.4l-1,1c-0.6-0.7-1.4-1-2.3-1c-1.8,0-3,1.2-3,3
				c0,1.7,1.3,3,3,3c0.9,0,1.6-0.3,2.3-1l1,1c-0.8,0.9-2,1.4-3.4,1.4C270.1,242.6,268.2,240.8,268.2,238.3z"/>
			<path class="st5" d="M287.4,241.2v1.3h-6.4V234h6.2v1.3h-4.6v2.2h4.1v1.3h-4.1v2.3H287.4z"/>
			<path class="st5" d="M292.1,241.6l0.5-1.2c0.7,0.5,1.8,0.9,2.8,0.9c1.3,0,1.9-0.5,1.9-1.1c0-1.8-5-0.6-5-3.8
				c0-1.4,1.1-2.5,3.4-2.5c1,0,2.1,0.3,2.8,0.7l-0.5,1.2c-0.8-0.4-1.6-0.7-2.3-0.7c-1.3,0-1.8,0.5-1.8,1.1c0,1.8,5,0.6,5,3.7
				c0,1.4-1.1,2.5-3.4,2.5C294.2,242.6,292.8,242.2,292.1,241.6z"/>
			<path class="st5" d="M303.4,241.6l0.5-1.2c0.7,0.5,1.8,0.9,2.8,0.9c1.3,0,1.9-0.5,1.9-1.1c0-1.8-5-0.6-5-3.8
				c0-1.4,1.1-2.5,3.4-2.5c1,0,2.1,0.3,2.8,0.7l-0.5,1.2c-0.8-0.4-1.6-0.7-2.3-0.7c-1.3,0-1.8,0.5-1.8,1.1c0,1.8,5,0.6,5,3.7
				c0,1.4-1.1,2.5-3.4,2.5C305.4,242.6,304.1,242.2,303.4,241.6z"/>
		</g>
		<g>
			<path class="st5" d="M26.1,213.1c-9.2,0-14.7-3-16.3-9.1h1.7c1.5,5,6.4,7.4,14.6,7.4c4,0,7-0.9,9-2.8c2-1.9,2.9-4.1,2.9-6.6
				c0-1.9-0.7-3.3-2-4.3c-1.4-1-3.6-1.5-6.7-1.5h-8c-4.2,0-7.2-1.1-9.3-3.4s-3.1-5.1-3.1-8.5c0-2.2,0.5-4.3,1.4-6
				c1-1.8,2.2-3.2,3.9-4.3c1.6-1.1,3.4-1.9,5.4-2.5c2-0.6,4.1-0.9,6.4-0.9c1.9,0,3.7,0.2,5.4,0.5c1.7,0.3,3.3,0.8,4.8,1.5
				c1.5,0.7,2.8,1.6,3.8,2.8c1.1,1.2,1.8,2.6,2.3,4.1h-1.7c-0.8-2.5-2.5-4.3-5.1-5.5c-2.6-1.2-5.7-1.7-9.4-1.7
				c-3.7,0-6.5,0.7-8.4,2.1c-1.9,1.4-2.8,3.2-2.8,5.6c0,2.1,0.8,3.6,2.3,4.5c1.5,1,3.8,1.4,6.8,1.4h7.8c4.1,0,7.2,1.1,9.4,3.4
				c2.2,2.2,3.3,5.1,3.3,8.6c0,4.4-1.7,8-5.2,10.9C35.8,211.7,31.4,213.1,26.1,213.1z"/>
			<path class="st5" d="M108.7,210.5h5.2v-26.3c0-3.7-0.7-6.5-2-8.4c-1.4-1.8-3.5-2.7-6.5-2.7c-3,0-5.5,1.1-7.3,3.2
				c-1.8,2.1-2.7,5.3-2.7,9.3v24.8h5.2v1.7H80v-1.7h5.2v-26.3c0-3.7-0.7-6.5-2-8.4c-1.3-1.8-3.5-2.7-6.4-2.7c-3,0-5.4,1.1-7.3,3.2
				c-1.8,2.1-2.8,5.3-2.8,9.3v24.8h5.1v1.7H51.6v-1.7h5v-37.3h-5v-1.7h15.2v6.4c0.9-2.3,2.3-4.1,4.5-5.4c2.1-1.3,4.7-2,7.8-2
				c4.7,0,8.2,0.8,10.6,2.3c2.4,1.5,4,4,4.8,7.4c0.8-3.3,2.3-5.7,4.6-7.3c2.3-1.6,5.2-2.4,8.6-2.4c5.9,0,10.1,1.2,12.6,3.7
				c2.5,2.4,3.8,6.3,3.8,11.5v24.8h5v1.7h-20.4V210.5z"/>
			<path class="st5" d="M187,210.5h5.2v-25.9c0-4.5,1.4-8,4.1-10.5c2.8-2.4,6.8-3.7,12.1-3.7c3.6,0,6.3,0.6,8.2,1.9
				c1.9,1.3,3.2,3.2,4,5.9h-1.7c-0.6-2.1-1.6-3.6-3.1-4.5s-3.4-1.4-5.8-1.4c-5.1,0-7.6,3.3-7.6,10v28h6.1v1.7H187V210.5z"/>
			<path class="st5" d="M244.4,213.2c-5.3,0-9.2-1.1-11.8-3.3c-2.6-2.2-3.9-5.5-3.9-9.9V162h10.2v9.5h12.4v1.7h-12.4v28.8
				c0,2.8,0.6,5.1,1.7,6.7c1.2,1.6,2.9,2.4,5.2,2.4c2.4,0,4.4-0.4,5.9-1.3c1.5-0.9,2.5-2.3,3.1-4.4h1.7c-0.7,2.6-2,4.6-3.9,5.9
				C250.7,212.6,248,213.2,244.4,213.2z"/>
			<path class="st5" d="M256.5,189.6h19.3v1.7h-19.3V189.6z"/>
			<path class="st5" d="M315.1,212.1c-2.5,0.8-5.2,1.2-8.2,1.2s-5.7-0.4-8.2-1.2s-4.8-2-6.8-3.6c-2-1.6-3.6-3.9-4.8-6.7
				c-1.2-2.8-1.7-6.1-1.7-9.8c0-3,0.4-5.7,1.2-8.2c0.8-2.4,1.8-4.5,3.1-6.1c1.3-1.6,2.9-3,4.8-4c1.8-1.1,3.8-1.9,5.9-2.3
				c2.1-0.5,4.3-0.7,6.6-0.7c3,0,5.7,0.4,8.2,1.2c2.5,0.8,4.7,2,6.8,3.6c2,1.6,3.6,3.9,4.8,6.7c1.2,2.8,1.7,6.1,1.7,9.8
				c0,3.7-0.6,7-1.7,9.8c-1.2,2.8-2.7,5-4.8,6.7C319.8,210.1,317.6,211.3,315.1,212.1z M306.9,211.4c3.5,0,6.1-1.4,7.8-4.1
				c1.8-2.7,2.6-7,2.6-12.9v-5c0-5.9-0.9-10.2-2.6-12.9c-1.7-2.7-4.4-4.1-7.9-4.1c-3.5,0-6.2,1.4-7.9,4.1c-1.8,2.7-2.6,7-2.6,12.9v5
				c0,5.9,0.9,10.2,2.6,12.9C300.8,210,303.4,211.4,306.9,211.4z"/>
			<path class="st5" d="M363.5,210.5h5.2v-26.3c0-3.7-0.7-6.5-2-8.4c-1.3-1.8-3.5-2.7-6.4-2.7c-3,0-5.4,1.1-7.3,3.2
				c-1.8,2.1-2.8,5.3-2.8,9.3v24.8h5.1v1.7H335v-1.7h5v-37.3h-5v-1.7h15.2v6.4c0.9-2.3,2.3-4.1,4.5-5.4c2.1-1.3,4.7-2,7.8-2
				c5.9,0,10.1,1.2,12.6,3.7c2.5,2.4,3.8,6.3,3.8,11.5v24.8h5.2v1.7h-20.6V210.5z"/>
			<path class="st5" d="M181.9,205.7c0,0-0.9,0-1.7,0c0,0.6-0.1,2.1-0.6,3.1c-0.5,1-1.3,1.5-2.1,1.8s-2.2,0.4-3-0.5
				c-0.7-0.9-0.6-2.5-0.6-3.2s0-21.6,0-22.3c0-0.7-0.1-2.2-0.5-4c-0.8-3-2.2-4.8-3.8-6.1c-1.6-1.3-4.1-2.4-6.7-3
				c-2.7-0.6-6-0.8-6.7-0.8c-0.8,0-4.7-0.1-7.9,0.7c-3.1,0.8-4.9,1.8-6.5,3.6c-1.7,1.7-2.3,4.1-2.3,4.1h1.8c0.3-1.1,1-2.2,2.1-3.3
				c1.1-1.1,3-2.1,5.4-2.5c2.4-0.5,5.1-0.5,6.9-0.2c1.8,0.3,3.4,0.8,4.8,1.9c1.4,1.1,2.3,2.8,2.8,4.7c0.5,1.9,0.6,4.4,0.6,5.2
				s0,5,0,5c0,0.8,0,2,0,3.3c-0.6-1.4-1.7-2.5-2.5-3.1c-0.7-0.6-2.4-1.5-4.6-1.9c-2.2-0.4-3.6-0.5-7-0.3c-3.4,0.2-5.9,1.2-5.9,1.2
				c-3.7,1.2-5.9,3.7-7.1,6.1c-1.1,2.3-1.4,6.2-0.7,8.8c0.7,2.7,2.2,4.9,4.3,6.4c2.1,1.6,5.2,2.5,7.4,2.8s5.3,0.5,8.4,0
				c3.1-0.5,4.8-1.7,5.9-2.7c1.1-1,1.7-2.5,1.7-2.5s-0.1,1.2,0.4,2.2c0.3,0.8,1.1,1.6,1.9,2c0.8,0.4,1.9,0.9,4.1,1.1
				c2.3,0.2,3.9,0.1,5.2-0.1c1.3-0.2,2.8-0.5,4.1-1.4c1.3-0.9,1.9-2.3,2.2-3.4C181.9,207.1,181.9,205.7,181.9,205.7z M162.6,206.6
				c-1,2-2.1,2.9-3.7,3.7c-1.6,0.7-3.6,1-5.8,0.8c-2.1-0.2-3.5-1.1-4.2-1.7c-0.8-0.7-1.9-1.9-2.5-5.1c-0.4-2.8-0.3-6.8,0.3-8.9
				c0,0,0.5-2.4,2.2-3.9c1.7-1.5,3.6-1.9,5.7-1.8c2.6,0.1,4.2,0.6,5.8,1.8c1.6,1.2,2.1,2.7,2.3,3c0.2,0.4,0.9,2.2,1,4.6
				S163.7,204.3,162.6,206.6z"/>
		</g>
	</g>
</g>
<g id="technisch" class="st11">
</g>
</svg>
